<svg id="svg" version="1.1" xmlns="http://www.w3.org/2000/svg" xmlns:xlink="http://www.w3.org/1999/xlink" width="400" height="397.0260223048327" viewBox="0, 0, 400,397.0260223048327"><g id="svgg"><path id="path0" d="M239.921 46.738 C 230.895 47.623,226.293 48.628,220.167 51.054 C 217.017 52.301,210.739 55.401,208.040 57.043 C 205.986 58.292,193.460 66.275,178.986 75.560 C 176.343 77.256,173.555 79.001,172.790 79.438 C 172.026 79.876,167.646 82.652,163.059 85.609 C 158.471 88.565,151.271 93.169,147.060 95.839 C 142.849 98.510,136.731 102.393,133.464 104.469 C 130.198 106.544,125.153 109.744,122.253 111.579 C 110.429 119.064,104.447 124.143,99.209 131.145 C 85.617 149.315,82.625 172.636,91.066 194.615 L 92.354 197.969 92.552 193.225 L 92.751 188.481 117.673 188.378 L 142.596 188.276 141.071 186.751 C 134.082 179.762,132.751 168.983,137.927 161.276 C 140.213 157.872,141.283 157.047,153.398 149.355 C 155.635 147.934,159.836 145.253,162.735 143.396 C 165.633 141.539,170.250 138.590,172.994 136.842 C 175.737 135.094,179.540 132.666,181.444 131.445 C 184.319 129.601,198.248 120.709,205.958 115.794 C 208.560 114.136,213.394 111.034,215.889 109.423 C 236.547 96.079,238.701 94.878,243.297 94.134 C 257.108 91.900,269.721 103.337,268.800 117.259 L 268.598 120.318 271.836 121.374 C 286.490 126.154,297.876 131.957,309.715 140.680 C 312.462 142.705,312.181 142.977,314.159 136.375 C 327.973 90.267,288.018 42.024,239.921 46.738 M231.579 157.548 C 216.116 160.406,211.525 162.363,194.439 173.380 C 191.599 175.211,187.349 177.928,184.995 179.417 C 182.640 180.907,180.011 182.572,179.152 183.118 C 178.292 183.664,176.151 185.005,174.394 186.097 L 171.198 188.083 201.389 188.185 L 231.579 188.287 231.579 197.570 L 231.579 206.853 234.260 205.858 C 240.542 203.528,251.533 204.905,253.916 208.321 C 254.097 208.580,254.211 208.512,254.216 208.143 C 254.221 207.815,255.453 206.117,256.955 204.369 C 265.087 194.905,278.581 188.009,293.149 185.872 C 297.598 185.220,297.582 185.262,294.596 181.838 C 284.455 170.210,270.552 162.151,254.618 158.663 C 249.805 157.610,235.098 156.898,231.579 157.548 M303.476 216.863 C 294.934 219.067,289.468 223.227,287.828 228.771 C 285.330 237.217,290.272 244.344,303.524 251.405 L 307.345 253.442 307.752 252.342 C 311.515 242.159,312.893 232.721,312.175 222.046 C 311.685 214.763,311.662 214.750,303.476 216.863 M108.838 220.588 C 108.838 220.933,115.456 226.218,118.399 228.221 C 124.144 232.133,135.283 237.004,140.921 238.069 L 142.220 238.315 142.113 229.485 L 142.006 220.655 125.422 220.552 C 116.301 220.495,108.838 220.511,108.838 220.588 M182.423 220.720 C 182.047 220.871,181.934 222.870,181.958 228.931 C 181.975 233.337,182.079 236.718,182.190 236.445 C 182.300 236.172,182.569 235.948,182.787 235.948 C 183.383 235.948,188.554 233.711,191.261 232.282 C 193.309 231.201,195.822 229.647,202.979 225.034 C 203.744 224.541,205.576 223.374,207.051 222.441 C 208.525 221.507,209.732 220.679,209.732 220.600 C 209.732 220.377,182.982 220.494,182.423 220.720 M241.700 250.560 C 239.074 252.246,235.090 254.786,232.846 256.207 C 230.602 257.627,227.388 259.683,225.704 260.777 C 222.168 263.073,210.207 270.720,202.275 275.756 C 199.276 277.660,196.286 279.562,195.631 279.983 C 194.975 280.404,192.830 281.780,190.864 283.041 C 188.898 284.302,186.365 285.930,185.235 286.659 C 184.105 287.388,182.899 288.093,182.554 288.226 C 181.990 288.442,181.927 291.356,181.927 316.844 L 181.927 345.221 185.402 343.419 C 187.314 342.428,193.347 338.766,198.808 335.281 C 215.523 324.617,218.413 322.778,220.072 321.748 C 221.434 320.902,227.838 316.824,235.353 312.016 C 236.445 311.317,241.629 308.010,246.872 304.667 C 252.115 301.324,257.299 298.017,258.391 297.318 C 259.484 296.618,261.766 295.171,263.464 294.101 C 265.162 293.030,267.933 291.259,269.621 290.163 C 271.310 289.067,274.344 287.130,276.365 285.858 L 280.039 283.544 276.961 281.925 C 260.629 273.334,250.278 261.689,247.303 248.560 C 246.976 247.118,247.172 247.048,241.700 250.560 M86.036 255.466 C 75.785 288.064,85.012 317.342,111.817 337.269 C 119.338 342.859,132.618 348.569,140.715 349.694 L 142.205 349.900 142.205 325.703 L 142.205 301.506 140.516 300.648 C 134.123 297.402,129.891 289.443,129.891 280.666 L 129.891 277.031 125.819 275.709 C 111.657 271.110,103.256 266.731,86.989 255.466 C 86.328 255.009,86.180 255.009,86.036 255.466 " stroke="none" fill="#5cf3fb" fill-rule="evenodd"></path><path id="path1" d="M303.078 184.586 C 283.957 185.720,266.704 193.071,257.111 204.171 C 255.695 205.809,254.430 207.418,254.299 207.746 C 254.169 208.073,253.913 208.520,253.731 208.739 C 253.197 209.379,250.645 213.776,250.645 214.056 C 250.645 214.197,250.305 214.948,249.888 215.725 C 249.472 216.502,248.904 217.929,248.627 218.897 C 248.350 219.864,247.995 220.834,247.838 221.053 C 246.658 222.700,245.862 240.722,246.734 246.077 C 249.026 260.162,259.726 272.868,276.862 281.854 C 278.500 282.713,279.901 283.550,279.974 283.714 C 280.046 283.878,280.404 284.018,280.768 284.024 C 281.132 284.031,282.324 284.485,283.416 285.034 C 284.508 285.582,286.207 286.312,287.190 286.657 C 288.173 287.001,289.067 287.405,289.176 287.555 C 289.285 287.704,290.268 288.158,291.360 288.564 C 292.453 288.970,293.436 289.407,293.545 289.537 C 293.791 289.828,296.213 290.774,297.418 291.050 C 297.910 291.162,298.312 291.398,298.312 291.573 C 298.312 291.749,299.206 292.189,300.298 292.552 C 301.390 292.915,302.284 293.348,302.284 293.514 C 302.284 293.681,302.991 294.028,303.855 294.287 C 304.719 294.546,305.658 294.977,305.941 295.244 C 306.223 295.511,307.125 296.040,307.944 296.419 C 308.764 296.797,309.434 297.270,309.434 297.468 C 309.434 297.666,309.851 297.933,310.361 298.061 C 310.871 298.189,311.915 298.789,312.680 299.395 C 313.445 300.001,314.569 300.854,315.178 301.291 C 315.786 301.728,316.486 302.319,316.732 302.604 C 316.978 302.889,317.716 303.713,318.371 304.436 C 320.209 306.462,320.925 307.511,321.437 308.927 C 321.696 309.643,322.027 310.228,322.173 310.228 C 322.778 310.228,323.416 313.951,323.279 316.674 C 322.907 324.039,317.904 329.007,307.956 331.892 C 303.341 333.230,293.037 334.046,289.634 333.344 C 288.372 333.083,286.673 332.870,285.857 332.870 C 283.648 332.870,276.465 331.608,276.465 331.220 C 276.465 331.035,276.090 330.884,275.632 330.884 C 274.620 330.884,270.753 329.827,269.116 329.103 C 268.461 328.813,267.165 328.352,266.236 328.078 C 265.308 327.804,264.548 327.430,264.548 327.246 C 264.548 327.062,264.300 326.912,263.998 326.912 C 263.695 326.912,262.935 326.645,262.310 326.318 C 261.684 325.992,260.859 325.724,260.477 325.722 C 260.094 325.721,259.782 325.562,259.782 325.368 C 259.782 325.174,259.111 324.701,258.292 324.316 C 257.473 323.931,256.713 323.507,256.604 323.373 C 256.495 323.240,255.693 322.775,254.822 322.340 C 253.952 321.905,253.001 321.326,252.709 321.053 C 252.417 320.780,252.045 320.556,251.884 320.556 C 251.722 320.556,251.243 320.237,250.820 319.847 C 249.580 318.705,248.125 317.776,247.578 317.776 C 246.663 317.776,246.856 353.959,247.775 354.746 C 249.816 356.494,263.793 360.543,272.890 362.023 C 308.107 367.750,342.049 360.225,354.633 343.900 C 366.823 328.086,368.059 301.258,357.332 285.280 C 355.082 281.927,345.327 272.121,344.224 272.102 C 344.024 272.098,343.577 271.823,343.231 271.490 C 342.320 270.613,340.262 269.320,336.643 267.350 C 334.896 266.398,333.198 265.404,332.870 265.140 C 332.542 264.876,331.660 264.454,330.910 264.202 C 330.159 263.950,329.265 263.501,328.924 263.203 C 328.582 262.906,327.646 262.452,326.844 262.195 C 326.042 261.937,325.171 261.468,324.909 261.151 C 324.646 260.835,324.143 260.576,323.790 260.576 C 323.438 260.576,322.253 260.143,321.158 259.614 C 317.068 257.639,313.787 256.207,313.353 256.207 C 313.106 256.207,312.347 255.869,311.666 255.457 C 310.984 255.045,309.988 254.575,309.452 254.412 C 306.055 253.379,296.142 247.203,292.628 243.931 C 281.838 233.881,287.166 221.020,303.873 216.787 C 308.991 215.490,323.734 214.633,323.734 215.632 C 323.734 215.891,324.356 216.087,325.172 216.087 C 327.275 216.087,335.011 217.287,335.249 217.650 C 335.360 217.821,336.837 218.266,338.530 218.640 C 340.223 219.014,341.609 219.446,341.609 219.601 C 341.609 219.757,342.860 220.206,344.389 220.600 C 345.919 220.994,347.170 221.480,347.170 221.681 C 347.170 221.882,347.405 222.046,347.692 222.046 C 348.404 222.046,354.003 224.917,355.336 225.965 C 357.593 227.741,357.515 228.391,357.402 208.845 L 357.299 190.878 352.929 189.400 C 350.526 188.587,348.262 187.914,347.898 187.903 C 347.534 187.893,347.176 187.725,347.104 187.529 C 347.031 187.333,344.647 186.847,341.807 186.449 C 338.967 186.051,336.553 185.602,336.443 185.450 C 335.866 184.656,312.220 184.044,303.078 184.586 M92.758 188.667 C 92.658 188.829,92.689 196.046,92.827 204.706 L 93.078 220.451 117.542 220.553 L 142.006 220.655 142.316 232.572 C 142.486 239.126,142.518 266.393,142.388 293.165 C 142.257 319.937,142.278 346.438,142.436 352.057 L 142.721 362.271 162.390 362.169 L 182.058 362.066 182.092 291.460 C 182.110 252.627,182.125 220.813,182.125 220.762 C 182.125 220.712,193.208 220.578,206.753 220.464 L 231.380 220.258 231.484 204.298 L 231.588 188.337 162.264 188.355 C 124.136 188.365,92.858 188.506,92.758 188.667 " stroke="none" fill="#fbfbfb" fill-rule="evenodd"></path><path id="path2" d="M233.168 1.532 C 233.168 1.719,231.783 1.970,230.089 2.089 C 217.182 2.998,198.435 8.942,186.295 15.976 C 182.865 17.963,157.417 34.193,104.667 68.036 C 101.609 69.999,97.535 72.608,95.614 73.836 C 83.591 81.520,82.451 82.337,76.071 87.836 C 40.065 118.871,29.639 175.121,52.046 217.459 L 53.087 219.426 50.340 223.953 C 17.585 277.940,41.543 352.678,101.157 382.475 C 114.706 389.247,134.819 395.233,144.023 395.233 C 144.963 395.233,145.843 395.412,145.978 395.631 C 146.282 396.123,167.089 396.180,167.392 395.689 C 167.507 395.503,168.813 395.247,170.295 395.121 C 184.438 393.912,203.050 387.421,216.802 378.900 C 226.320 373.003,251.432 356.883,251.436 356.667 C 251.438 356.538,250.725 356.197,249.851 355.909 C 248.977 355.620,248.262 355.255,248.262 355.097 C 248.262 354.939,247.905 354.716,247.468 354.602 C 246.687 354.398,246.673 354.060,246.673 335.509 C 246.673 317.942,246.625 316.595,245.978 316.219 C 245.350 315.853,245.365 315.812,246.134 315.802 C 246.715 315.793,247.063 316.104,247.234 316.783 C 247.371 317.329,247.640 317.776,247.833 317.776 C 248.118 317.776,251.149 319.875,252.830 321.238 C 253.049 321.415,253.987 321.897,254.916 322.310 C 255.844 322.722,256.604 323.194,256.604 323.358 C 256.604 323.522,257.173 323.855,257.869 324.097 C 258.565 324.340,259.414 324.774,259.756 325.062 C 260.098 325.350,261.271 325.912,262.363 326.311 C 263.456 326.711,264.439 327.160,264.548 327.311 C 264.657 327.461,265.819 327.913,267.130 328.315 C 268.441 328.718,269.603 329.156,269.712 329.289 C 269.987 329.625,274.685 330.884,275.664 330.884 C 276.105 330.884,276.465 331.025,276.465 331.199 C 276.465 331.611,284.474 332.870,287.100 332.870 C 289.019 332.870,289.546 332.613,295.616 328.722 C 299.174 326.440,304.856 322.822,308.242 320.682 C 319.901 313.312,322.477 310.805,321.110 308.161 C 319.551 305.146,313.709 299.590,310.725 298.285 C 310.015 297.975,309.434 297.586,309.434 297.421 C 309.434 297.257,308.585 296.709,307.547 296.203 C 306.509 295.698,305.303 295.079,304.866 294.827 C 303.138 293.832,295.624 290.406,294.616 290.153 C 294.027 290.005,293.545 289.762,293.545 289.612 C 293.545 289.463,292.562 289.006,291.360 288.598 C 290.159 288.189,289.176 287.725,289.176 287.565 C 289.176 287.406,288.684 287.156,288.083 287.009 C 287.483 286.863,285.688 286.128,284.096 285.377 C 280.541 283.701,280.458 283.700,277.922 285.341 C 276.793 286.071,271.847 289.228,266.931 292.356 C 262.016 295.484,256.564 298.962,254.816 300.086 C 245.291 306.210,235.028 312.734,231.380 314.983 C 230.288 315.657,225.909 318.445,221.648 321.179 C 217.388 323.913,211.490 327.684,208.540 329.558 C 200.925 334.396,197.950 336.298,193.543 339.143 C 191.414 340.518,188.023 342.484,186.006 343.512 L 182.340 345.382 182.233 353.724 L 182.125 362.066 162.363 362.169 L 142.602 362.272 142.602 356.409 L 142.601 350.546 138.331 349.574 C 99.148 340.650,74.457 302.541,83.244 264.548 C 85.341 255.480,85.996 253.986,87.357 255.157 C 95.375 262.056,112.832 271.159,125.955 275.284 L 130.163 276.607 130.139 280.607 C 130.100 287.124,132.271 292.730,136.450 296.910 C 138.196 298.655,141.648 301.092,142.375 301.092 C 142.500 301.092,142.602 287.103,142.602 270.004 L 142.602 238.916 138.530 237.801 C 132.507 236.151,124.129 232.564,120.449 230.058 C 119.852 229.652,118.565 228.800,117.589 228.165 C 116.612 227.530,114.049 225.536,111.892 223.734 L 107.971 220.457 100.473 220.457 L 92.974 220.457 92.853 209.831 L 92.731 199.206 90.885 194.916 C 83.021 176.637,84.769 153.235,95.274 136.133 C 101.304 126.318,108.934 119.417,124.528 109.675 C 127.390 107.887,127.792 107.632,133.387 104.061 C 135.200 102.903,139.802 99.974,143.613 97.552 C 147.423 95.130,154.739 90.467,159.870 87.190 C 165.000 83.913,169.925 80.785,170.812 80.238 C 172.593 79.142,188.963 68.737,193.049 66.104 C 205.612 58.008,210.189 55.236,214.300 53.235 C 255.880 33.000,305.797 57.633,316.108 103.476 C 317.625 110.224,317.703 124.338,316.255 130.288 C 315.214 134.567,312.630 142.999,312.359 142.999 C 312.261 142.999,311.250 142.315,310.112 141.478 C 300.561 134.454,290.342 128.660,281.231 125.101 C 277.967 123.826,271.731 121.682,269.789 121.166 L 268.079 120.712 268.343 118.035 C 269.801 103.244,256.553 91.655,241.907 94.908 C 237.843 95.811,237.647 95.921,220.336 107.024 C 203.187 118.023,202.362 118.551,197.904 121.389 C 195.878 122.678,192.929 124.562,191.350 125.574 C 176.373 135.177,170.247 139.094,168.222 140.365 C 166.912 141.188,163.561 143.324,160.776 145.111 C 157.991 146.899,152.700 150.282,149.018 152.630 C 144.835 155.297,141.569 157.695,140.315 159.021 C 133.797 165.914,133.474 176.276,139.529 184.297 C 142.825 188.664,141.185 188.282,156.638 188.282 L 170.161 188.282 172.885 186.594 C 177.593 183.676,178.560 183.065,188.401 176.794 C 193.688 173.425,198.997 170.050,200.199 169.293 C 201.400 168.536,202.830 167.612,203.376 167.239 C 206.951 164.800,211.965 162.492,219.464 159.833 C 244.690 150.889,278.986 161.500,296.778 183.753 L 297.763 184.985 301.711 184.666 C 310.694 183.943,336.631 184.546,337.835 185.507 C 338.054 185.681,340.199 186.129,342.602 186.504 C 345.005 186.878,347.061 187.316,347.170 187.477 C 347.279 187.638,348.054 187.896,348.893 188.051 C 350.762 188.394,350.742 188.289,347.912 182.629 C 345.567 177.942,345.555 178.697,348.036 174.709 C 379.776 123.670,360.707 52.730,306.338 19.587 C 290.948 10.205,266.135 1.986,253.200 1.986 C 252.014 1.986,251.043 1.807,251.043 1.589 C 251.043 1.336,247.799 1.192,242.105 1.192 C 237.190 1.192,233.168 1.345,233.168 1.532 M369.414 1.503 C 369.414 1.947,371.371 2.544,371.712 2.204 C 372.028 1.888,371.737 1.689,370.506 1.379 C 369.860 1.217,369.414 1.268,369.414 1.503 M27.408 1.986 C 27.408 2.205,27.676 2.383,28.004 2.383 C 28.332 2.383,28.600 2.205,28.600 1.986 C 28.600 1.768,28.332 1.589,28.004 1.589 C 27.676 1.589,27.408 1.768,27.408 1.986 M22.897 3.774 C 22.569 4.101,22.099 4.369,21.852 4.369 C 21.605 4.369,21.501 4.527,21.620 4.720 C 21.863 5.114,24.628 3.985,24.628 3.492 C 24.628 2.963,23.528 3.142,22.897 3.774 M375.770 3.972 C 375.770 4.191,376.038 4.369,376.365 4.369 C 376.693 4.369,376.961 4.191,376.961 3.972 C 376.961 3.754,376.693 3.575,376.365 3.575 C 376.038 3.575,375.770 3.754,375.770 3.972 M378.550 5.561 C 379.054 5.998,379.597 6.356,379.756 6.356 C 379.915 6.356,381.181 7.238,382.568 8.316 C 383.955 9.394,385.183 10.183,385.296 10.069 C 385.487 9.877,384.924 9.369,382.596 7.636 C 382.091 7.259,381.374 6.683,381.002 6.356 C 380.345 5.776,378.359 4.767,377.875 4.767 C 377.742 4.767,378.046 5.124,378.550 5.561 M16.286 7.944 C 15.276 8.809,15.085 9.134,15.587 9.135 C 15.968 9.136,16.503 8.779,16.775 8.342 C 17.048 7.905,17.497 7.547,17.772 7.547 C 18.047 7.547,18.272 7.368,18.272 7.150 C 18.272 6.486,17.742 6.698,16.286 7.944 M11.519 12.148 C 11.519 12.850,12.374 12.728,12.620 11.991 C 12.706 11.732,12.494 11.519,12.148 11.519 C 11.802 11.519,11.519 11.802,11.519 12.148 M388.481 13.604 C 388.481 13.955,388.928 14.594,389.474 15.023 C 390.020 15.453,390.473 15.958,390.480 16.145 C 390.501 16.685,392.052 18.408,392.297 18.163 C 392.419 18.041,392.147 17.569,391.691 17.114 C 391.236 16.658,390.864 16.139,390.864 15.960 C 390.864 15.781,390.328 15.034,389.672 14.300 C 388.866 13.397,388.481 13.172,388.481 13.604 M9.831 14.285 C 9.057 15.039,8.940 15.492,9.519 15.492 C 9.903 15.492,10.905 13.934,10.658 13.721 C 10.585 13.659,10.214 13.913,9.831 14.285 M8.088 16.606 C 7.146 17.211,6.078 19.861,6.776 19.861 C 7.008 19.861,7.086 19.682,6.951 19.464 C 6.816 19.245,6.850 19.065,7.027 19.064 C 7.368 19.061,8.850 16.662,8.640 16.452 C 8.573 16.385,8.324 16.454,8.088 16.606 M5.739 20.621 C 5.862 20.821,5.739 21.065,5.464 21.163 C 5.190 21.261,5.109 21.494,5.285 21.682 C 5.460 21.869,5.771 21.760,5.974 21.438 C 6.463 20.665,6.450 20.258,5.935 20.258 C 5.703 20.258,5.615 20.422,5.739 20.621 M393.253 20.528 C 393.265 21.136,393.997 22.024,394.266 21.755 C 394.413 21.608,394.244 21.198,393.890 20.845 C 393.537 20.491,393.250 20.348,393.253 20.528 M394.108 22.555 C 394.181 22.727,394.598 23.709,395.035 24.739 C 395.825 26.602,396.425 27.154,396.425 26.018 C 396.425 25.690,396.275 25.422,396.091 25.422 C 395.907 25.422,395.542 24.707,395.280 23.833 C 395.018 22.959,394.618 22.244,394.390 22.244 C 394.162 22.244,394.035 22.384,394.108 22.555 M3.719 24.826 C 3.844 25.154,3.774 25.422,3.563 25.422 C 3.351 25.422,3.183 25.735,3.190 26.117 C 3.202 26.746,3.259 26.739,3.786 26.041 C 4.476 25.129,4.548 24.230,3.930 24.230 C 3.688 24.230,3.593 24.499,3.719 24.826 M396.028 27.607 C 396.028 27.934,396.207 28.203,396.425 28.203 C 396.643 28.203,396.822 27.934,396.822 27.607 C 396.822 27.279,396.643 27.011,396.425 27.011 C 396.207 27.011,396.028 27.279,396.028 27.607 M2.389 29.494 C 2.394 30.216,2.469 30.273,2.781 29.791 C 3.278 29.021,3.278 28.600,2.781 28.600 C 2.562 28.600,2.386 29.002,2.389 29.494 M1.589 31.357 C 1.589 31.781,1.768 32.238,1.986 32.373 C 2.211 32.513,2.383 32.179,2.383 31.602 C 2.383 31.043,2.205 30.586,1.986 30.586 C 1.768 30.586,1.589 30.933,1.589 31.357 M1.192 34.558 C 1.192 35.214,1.370 35.750,1.589 35.750 C 1.807 35.750,1.986 35.214,1.986 34.558 C 1.986 33.903,1.807 33.366,1.589 33.366 C 1.370 33.366,1.192 33.903,1.192 34.558 M397.617 35.154 C 397.617 35.700,397.795 36.147,398.014 36.147 C 398.232 36.147,398.411 35.700,398.411 35.154 C 398.411 34.608,398.232 34.161,398.014 34.161 C 397.795 34.161,397.617 34.608,397.617 35.154 M237.339 205.351 C 236.465 205.509,234.856 206.002,233.764 206.446 L 231.778 207.254 231.669 213.856 L 231.560 220.457 221.233 220.457 L 210.906 220.457 205.056 224.207 C 194.262 231.127,191.676 232.657,188.282 234.129 C 186.425 234.934,184.325 235.849,183.615 236.161 L 182.324 236.730 182.324 262.371 C 182.324 286.676,182.360 287.992,183.019 287.620 C 183.401 287.404,185.501 286.071,187.686 284.659 C 191.473 282.210,195.081 279.901,201.165 276.031 C 202.679 275.068,205.580 273.208,207.610 271.897 C 209.641 270.586,213.131 268.352,215.367 266.931 C 217.602 265.511,221.852 262.799,224.810 260.904 C 227.768 259.009,231.529 256.608,233.168 255.568 C 236.337 253.557,245.980 247.387,246.221 247.216 C 246.301 247.159,246.405 242.144,246.454 236.069 C 246.538 225.531,246.715 223.641,247.855 221.053 C 248.048 220.616,248.513 219.275,248.888 218.073 C 249.264 216.872,249.688 215.799,249.831 215.690 C 249.974 215.581,250.409 214.643,250.798 213.605 C 251.187 212.567,251.642 211.718,251.810 211.718 C 252.290 211.718,253.544 208.656,253.256 208.189 C 251.897 205.990,242.793 204.367,237.339 205.351 M311.985 215.827 C 311.872 216.120,311.965 217.506,312.192 218.905 C 313.707 228.252,312.666 238.975,309.253 249.174 C 307.564 254.223,307.578 253.621,309.136 254.237 C 309.846 254.517,311.589 255.269,313.009 255.907 C 314.429 256.546,316.395 257.426,317.378 257.864 C 318.361 258.301,320.062 259.091,321.158 259.618 C 322.253 260.145,323.401 260.576,323.708 260.576 C 324.016 260.576,324.549 260.815,324.894 261.106 C 325.239 261.398,326.147 261.874,326.912 262.165 C 327.676 262.455,328.570 262.902,328.898 263.158 C 329.225 263.414,330.119 263.861,330.884 264.151 C 331.648 264.441,332.542 264.873,332.870 265.110 C 333.525 265.584,334.267 266.010,337.356 267.683 C 339.870 269.045,342.382 270.673,343.231 271.490 C 343.577 271.823,344.027 272.095,344.231 272.095 C 344.435 272.095,345.477 272.818,346.545 273.701 C 348.815 275.576,348.693 275.650,350.474 271.301 C 356.196 257.326,358.958 241.272,358.384 225.319 C 358.153 218.876,357.582 217.788,357.413 223.464 L 357.299 227.267 355.909 226.280 C 354.285 225.127,348.242 222.046,347.606 222.046 C 347.366 222.046,347.170 221.887,347.170 221.693 C 347.170 221.498,345.963 221.018,344.489 220.625 C 343.014 220.231,341.707 219.763,341.583 219.584 C 341.460 219.405,339.941 218.956,338.207 218.587 C 336.473 218.217,334.965 217.800,334.856 217.661 C 334.558 217.280,330.319 216.556,326.614 216.253 C 324.811 216.105,323.337 215.829,323.337 215.639 C 323.337 215.027,312.221 215.211,311.985 215.827 M397.617 362.661 C 397.617 363.317,397.795 363.853,398.014 363.853 C 398.232 363.853,398.411 363.317,398.411 362.661 C 398.411 362.006,398.232 361.470,398.014 361.470 C 397.795 361.470,397.617 362.006,397.617 362.661 M1.192 363.257 C 1.192 364.022,1.370 364.647,1.589 364.647 C 1.807 364.647,1.986 364.022,1.986 363.257 C 1.986 362.493,1.807 361.867,1.589 361.867 C 1.370 361.867,1.192 362.493,1.192 363.257 M397.128 365.425 C 396.853 366.402,397.017 366.968,397.450 366.535 C 397.577 366.408,397.618 365.887,397.541 365.377 L 397.402 364.449 397.128 365.425 M1.854 365.310 C 1.377 365.786,1.576 367.031,2.130 367.031 C 2.492 367.031,2.608 366.704,2.481 366.038 C 2.273 364.954,2.244 364.919,1.854 365.310 M2.389 368.123 C 2.386 368.615,2.562 369.017,2.781 369.017 C 3.278 369.017,3.278 368.595,2.781 367.825 C 2.469 367.343,2.394 367.400,2.389 368.123 M396.028 369.613 C 396.028 369.940,396.207 370.209,396.425 370.209 C 396.643 370.209,396.822 369.940,396.822 369.613 C 396.822 369.285,396.643 369.017,396.425 369.017 C 396.207 369.017,396.028 369.285,396.028 369.613 M395.035 372.481 C 394.598 373.510,394.181 374.493,394.108 374.664 C 394.035 374.835,394.162 374.975,394.390 374.975 C 394.618 374.975,395.018 374.260,395.280 373.386 C 395.542 372.512,395.907 371.797,396.091 371.797 C 396.275 371.797,396.425 371.529,396.425 371.202 C 396.425 370.066,395.825 370.618,395.035 372.481 M3.184 371.500 C 3.192 372.164,3.877 373.217,4.133 372.960 C 4.441 372.652,3.932 371.003,3.529 371.003 C 3.336 371.003,3.180 371.226,3.184 371.500 M4.369 373.935 C 4.369 374.263,4.548 374.642,4.767 374.777 C 4.985 374.912,5.164 374.754,5.164 374.426 C 5.164 374.099,4.985 373.720,4.767 373.585 C 4.548 373.450,4.369 373.608,4.369 373.935 M5.351 376.465 C 5.501 377.066,5.855 377.687,6.136 377.846 C 6.418 378.004,6.867 378.662,7.134 379.307 C 7.544 380.297,8.739 381.340,8.739 380.708 C 8.739 380.469,7.464 378.435,7.137 378.153 C 7.010 378.044,6.671 377.373,6.384 376.663 C 5.744 375.081,4.967 374.932,5.351 376.465 M393.488 376.001 C 393.115 376.973,393.196 377.069,393.843 376.422 C 394.518 375.747,394.604 375.372,394.084 375.372 C 393.889 375.372,393.621 375.655,393.488 376.001 M391.162 379.828 C 390.780 380.306,390.467 380.826,390.467 380.984 C 390.467 381.141,389.930 381.806,389.275 382.461 C 388.620 383.117,388.083 383.885,388.083 384.169 C 388.083 384.790,390.139 382.604,391.126 380.934 C 391.513 380.278,391.970 379.742,392.141 379.742 C 392.313 379.742,392.453 379.563,392.453 379.345 C 392.453 378.694,391.903 378.900,391.162 379.828 M8.739 381.656 C 8.739 381.835,9.186 382.370,9.732 382.845 C 10.883 383.846,10.986 383.688,10.083 382.310 C 9.457 381.354,8.739 381.005,8.739 381.656 M11.519 385.037 C 11.519 385.328,11.966 385.805,12.512 386.097 C 13.059 386.390,13.505 386.867,13.505 387.157 C 13.505 387.448,13.729 387.690,14.002 387.694 C 14.275 387.698,15.212 388.324,16.083 389.084 C 17.678 390.476,18.272 390.758,18.272 390.122 C 18.272 389.933,17.519 389.280,16.599 388.671 C 15.679 388.062,14.309 386.876,13.555 386.036 C 12.123 384.441,11.519 384.145,11.519 385.037 M382.562 388.877 C 381.200 389.970,379.947 390.864,379.776 390.864 C 379.606 390.864,379.054 391.221,378.550 391.658 C 378.046 392.095,377.742 392.453,377.875 392.453 C 378.359 392.453,380.345 391.444,381.002 390.864 C 381.374 390.536,382.091 389.960,382.596 389.584 C 384.960 387.823,385.485 387.341,385.269 387.124 C 385.142 386.996,383.923 387.785,382.562 388.877 M20.258 391.704 C 20.258 391.935,20.794 392.327,21.450 392.574 C 22.105 392.822,22.642 393.150,22.642 393.304 C 22.642 393.664,25.410 394.583,25.681 394.313 C 25.794 394.200,24.620 393.472,23.072 392.695 C 21.524 391.919,20.258 391.472,20.258 391.704 M375.116 393.432 C 374.659 393.752,374.172 393.901,374.034 393.763 C 373.896 393.625,373.784 393.721,373.784 393.976 C 373.784 394.541,373.770 394.541,375.313 394.003 C 376.001 393.763,376.564 393.406,376.564 393.208 C 376.564 392.690,376.065 392.767,375.116 393.432 M26.756 395.035 C 27.405 395.684,28.600 395.843,28.600 395.280 C 28.600 395.087,28.198 394.821,27.706 394.689 C 26.316 394.317,26.112 394.391,26.756 395.035 M369.911 395.116 C 368.975 395.297,368.653 396.032,369.513 396.022 C 370.486 396.012,371.797 395.532,371.797 395.187 C 371.797 394.828,371.473 394.816,369.911 395.116 M28.997 395.631 C 28.997 395.849,29.265 396.028,29.593 396.028 C 29.921 396.028,30.189 395.849,30.189 395.631 C 30.189 395.412,29.921 395.233,29.593 395.233 C 29.265 395.233,28.997 395.412,28.997 395.631 " stroke="none" fill="#5b3c8c" fill-rule="evenodd"></path><path id="path3" d="M29.973 1.616 C 29.829 1.849,29.461 1.944,29.155 1.827 C 28.850 1.710,28.600 1.787,28.600 1.999 C 28.600 2.210,28.253 2.383,27.829 2.383 C 27.405 2.383,26.946 2.565,26.808 2.787 C 26.671 3.009,26.392 3.088,26.189 2.962 C 25.986 2.836,25.819 2.917,25.819 3.142 C 25.819 3.366,25.551 3.447,25.223 3.321 C 24.896 3.196,24.628 3.273,24.628 3.494 C 24.628 3.920,22.308 4.938,21.664 4.795 C 21.454 4.749,21.051 5.025,20.770 5.410 C 20.488 5.795,20.258 5.974,20.258 5.807 C 20.258 5.641,19.996 5.741,19.676 6.029 C 18.404 7.177,17.895 7.547,17.590 7.547 C 17.415 7.547,17.048 7.905,16.775 8.342 C 16.503 8.779,15.923 9.136,15.488 9.136 C 15.053 9.136,14.697 9.383,14.697 9.686 C 14.697 9.988,14.342 10.328,13.907 10.442 C 13.473 10.555,12.941 11.112,12.726 11.680 C 12.510 12.247,12.063 12.711,11.733 12.711 C 11.403 12.711,10.871 13.337,10.552 14.101 C 10.232 14.866,9.694 15.492,9.355 15.492 C 9.016 15.492,8.739 15.745,8.739 16.055 C 8.739 16.786,7.445 19.061,7.027 19.064 C 6.850 19.065,6.816 19.245,6.951 19.464 C 7.086 19.682,7.008 19.861,6.776 19.861 C 6.545 19.861,6.356 20.140,6.356 20.480 C 6.356 20.821,6.179 20.990,5.963 20.857 C 5.738 20.718,5.671 20.877,5.807 21.231 C 5.937 21.571,5.836 21.847,5.580 21.847 C 5.325 21.847,5.227 22.026,5.362 22.244 C 5.497 22.463,5.427 22.642,5.205 22.642 C 4.984 22.642,4.686 23.266,4.542 24.028 C 4.389 24.845,4.112 25.310,3.867 25.159 C 3.620 25.006,3.571 25.095,3.746 25.378 C 3.908 25.640,3.840 26.096,3.595 26.391 C 3.350 26.686,3.177 27.080,3.211 27.267 C 3.244 27.454,3.236 27.696,3.192 27.805 C 3.077 28.089,2.825 29.359,2.542 31.079 C 2.407 31.897,2.140 32.468,1.948 32.350 C 1.753 32.229,1.708 32.934,1.846 33.942 C 2.015 35.172,1.950 35.750,1.643 35.750 C 1.307 35.750,1.192 77.360,1.192 198.808 C 1.192 319.760,1.308 361.867,1.641 361.867 C 1.937 361.867,2.021 362.470,1.889 363.647 C 1.778 364.626,1.845 365.331,2.036 365.213 C 2.227 365.094,2.397 365.321,2.414 365.716 C 2.430 366.112,2.535 366.792,2.645 367.229 C 2.756 367.666,2.870 368.337,2.898 368.719 C 2.927 369.101,3.074 369.414,3.226 369.414 C 3.377 369.414,3.407 369.772,3.293 370.209 C 3.179 370.645,3.270 371.003,3.497 371.003 C 3.724 371.003,4.026 371.537,4.170 372.190 C 4.313 372.843,4.596 373.479,4.797 373.604 C 4.999 373.728,5.164 374.177,5.164 374.601 C 5.164 375.025,5.331 375.372,5.535 375.372 C 5.740 375.372,6.133 375.998,6.410 376.763 C 6.686 377.527,7.015 378.153,7.139 378.153 C 7.264 378.153,7.720 378.819,8.152 379.633 C 8.584 380.447,9.257 381.437,9.648 381.833 C 10.039 382.230,10.527 382.994,10.731 383.531 C 10.935 384.069,11.346 384.508,11.643 384.508 C 11.940 384.508,12.794 385.183,13.540 386.007 C 14.285 386.832,15.521 387.936,16.286 388.461 C 17.051 388.986,17.980 389.697,18.352 390.041 C 19.619 391.211,20.258 391.690,20.258 391.469 C 20.258 391.348,21.617 391.956,23.279 392.821 C 24.940 393.686,26.817 394.508,27.450 394.647 C 28.082 394.786,28.600 395.047,28.600 395.228 C 28.600 395.408,28.957 395.463,29.394 395.348 C 29.838 395.232,30.189 395.336,30.189 395.584 C 30.189 395.909,45.753 396.028,88.206 396.028 C 126.783 396.028,146.141 395.895,145.978 395.631 C 145.843 395.412,144.963 395.233,144.023 395.233 C 134.819 395.233,114.706 389.247,101.157 382.475 C 41.543 352.678,17.585 277.940,50.340 223.953 L 53.087 219.426 52.046 217.459 C 29.639 175.121,40.065 118.871,76.071 87.836 C 82.451 82.337,83.591 81.520,95.614 73.836 C 97.535 72.608,101.609 69.999,104.667 68.036 C 157.417 34.193,182.865 17.963,186.295 15.976 C 198.435 8.942,217.182 2.998,230.089 2.089 C 231.783 1.970,233.168 1.719,233.168 1.532 C 233.168 1.009,30.297 1.093,29.973 1.616 M251.043 1.589 C 251.043 1.807,252.014 1.986,253.200 1.986 C 266.135 1.986,290.948 10.205,306.338 19.587 C 360.707 52.730,379.776 123.670,348.036 174.709 C 345.548 178.710,345.521 177.628,348.246 183.317 L 350.529 188.083 354.113 189.275 L 357.696 190.467 357.696 205.065 C 357.696 213.094,357.805 219.663,357.938 219.662 C 358.381 219.662,358.593 230.887,358.260 236.739 C 357.604 248.297,354.456 262.033,350.167 272.053 L 348.835 275.166 352.691 279.092 C 363.136 289.726,368.228 308.752,364.267 322.344 C 364.076 322.999,363.803 324.228,363.660 325.076 C 359.403 350.341,335.429 364.245,296.127 364.244 C 286.758 364.243,284.204 364.066,273.287 362.653 C 267.823 361.947,257.347 359.233,252.989 357.396 L 251.558 356.793 236.107 366.664 C 208.594 384.240,204.923 386.201,191.063 390.726 C 186.449 392.232,174.493 394.762,170.295 395.121 C 168.813 395.247,167.507 395.503,167.392 395.689 C 167.277 395.875,212.586 396.028,268.100 396.028 C 323.604 396.028,369.017 395.879,369.017 395.698 C 369.017 395.406,371.949 394.484,373.287 394.355 C 373.560 394.328,373.784 394.158,373.784 393.976 C 373.784 393.793,373.918 393.674,374.081 393.709 C 374.570 393.816,378.155 392.110,378.802 391.463 C 379.132 391.134,379.560 390.864,379.755 390.864 C 379.949 390.864,381.076 390.076,382.259 389.112 C 383.441 388.149,384.949 387.081,385.610 386.740 C 386.270 386.398,387.367 385.214,388.048 384.108 C 388.729 383.001,389.551 381.994,389.876 381.870 C 390.201 381.745,390.467 381.402,390.467 381.108 C 390.467 380.813,390.914 380.125,391.460 379.579 C 392.006 379.033,392.453 378.310,392.453 377.972 C 392.453 377.635,392.612 377.358,392.807 377.358 C 393.002 377.358,393.273 376.912,393.410 376.365 C 393.547 375.819,393.846 375.372,394.073 375.372 C 394.300 375.372,394.383 375.205,394.256 375.001 C 394.027 374.629,395.603 370.909,396.085 370.686 C 396.226 370.621,396.249 370.219,396.138 369.792 C 396.021 369.347,396.135 369.017,396.404 369.017 C 396.661 369.017,396.840 368.704,396.801 368.322 C 396.763 367.939,396.766 367.537,396.810 367.428 C 396.958 367.053,397.195 365.638,397.456 363.555 C 397.600 362.408,397.874 361.470,398.064 361.470 C 398.261 361.470,398.411 291.176,398.411 198.808 C 398.411 105.069,398.263 36.147,398.061 36.147 C 397.868 36.147,397.585 34.808,397.431 33.170 C 397.278 31.533,397.005 30.103,396.826 29.992 C 396.646 29.881,396.593 29.433,396.707 28.997 C 396.832 28.520,396.719 28.203,396.425 28.203 C 396.135 28.203,396.018 27.887,396.138 27.427 C 396.249 27.001,396.226 26.599,396.085 26.533 C 395.603 26.311,394.027 22.590,394.256 22.218 C 394.383 22.014,394.300 21.847,394.073 21.847 C 393.846 21.847,393.547 21.400,393.410 20.854 C 393.273 20.308,393.002 19.861,392.807 19.861 C 392.612 19.861,392.453 19.585,392.453 19.248 C 392.453 18.911,392.006 18.153,391.460 17.564 C 390.914 16.975,390.467 16.338,390.467 16.149 C 390.467 15.959,390.020 15.453,389.474 15.023 C 388.928 14.594,388.468 13.942,388.453 13.576 C 388.413 12.645,382.808 7.992,379.767 6.368 C 379.234 6.084,378.441 5.518,378.004 5.110 C 377.566 4.703,376.904 4.369,376.532 4.369 C 376.159 4.369,375.744 4.081,375.609 3.729 C 375.453 3.322,375.074 3.163,374.573 3.294 C 374.139 3.408,373.784 3.351,373.784 3.169 C 373.784 2.986,372.800 2.633,371.599 2.383 C 370.397 2.134,369.414 1.764,369.414 1.561 C 369.414 1.335,346.410 1.192,310.228 1.192 C 271.036 1.192,251.043 1.326,251.043 1.589 M295.333 66.733 C 296.630 68.044,297.780 69.116,297.890 69.116 C 297.999 69.116,297.027 68.044,295.730 66.733 C 294.433 65.422,293.282 64.350,293.173 64.350 C 293.064 64.350,294.036 65.422,295.333 66.733 M312.755 228.004 C 312.755 230.079,312.822 230.929,312.904 229.891 C 312.986 228.853,312.986 227.155,312.904 226.117 C 312.822 225.079,312.755 225.929,312.755 228.004 M321.773 310.461 C 321.726 311.272,314.799 316.504,308.242 320.680 C 304.638 322.977,298.952 326.597,295.607 328.725 C 288.970 332.949,288.808 333.251,293.163 333.261 C 311.409 333.304,322.707 326.612,322.663 315.789 C 322.651 312.877,321.896 308.356,321.773 310.461 " stroke="none" fill="#2c7bc3" fill-rule="evenodd"></path><path id="path4" d="M237.772 46.496 C 233.125 46.981,232.793 47.373,237.364 46.979 C 241.712 46.604,248.120 46.586,252.632 46.934 C 254.866 47.107,255.471 47.080,254.419 46.854 C 251.894 46.313,241.646 46.092,237.772 46.496 M225.621 48.842 C 224.419 49.243,223.615 49.587,223.833 49.606 C 224.052 49.626,225.303 49.303,226.614 48.889 C 227.925 48.475,228.729 48.131,228.401 48.124 C 228.073 48.117,226.822 48.440,225.621 48.842 M261.370 48.417 C 261.698 48.603,262.681 48.866,263.555 48.999 C 264.557 49.153,264.851 49.120,264.350 48.911 C 263.187 48.427,260.650 48.006,261.370 48.417 M219.861 50.851 C 218.975 51.286,218.711 51.523,219.265 51.387 C 220.426 51.101,222.429 50.084,221.847 50.076 C 221.629 50.073,220.735 50.422,219.861 50.851 M268.520 50.380 C 268.848 50.582,269.563 50.868,270.109 51.014 C 270.799 51.198,270.921 51.167,270.506 50.911 C 270.179 50.709,269.464 50.423,268.918 50.277 C 268.227 50.093,268.106 50.124,268.520 50.380 M215.690 52.632 C 214.707 53.158,214.081 53.589,214.300 53.589 C 214.518 53.589,215.501 53.158,216.485 52.632 C 217.468 52.105,218.093 51.674,217.875 51.674 C 217.656 51.674,216.673 52.105,215.690 52.632 M274.115 52.585 C 274.519 52.958,280.834 55.996,280.834 55.818 C 280.834 55.597,274.655 52.433,274.223 52.433 C 274.072 52.433,274.024 52.502,274.115 52.585 M211.619 54.646 C 210.134 55.452,210.224 55.787,211.718 55.015 C 212.373 54.676,212.910 54.314,212.910 54.210 C 212.910 53.955,212.867 53.969,211.619 54.646 M286.792 59.727 C 286.792 59.837,287.329 60.308,287.984 60.775 C 288.640 61.241,289.176 61.534,289.176 61.425 C 289.176 61.315,288.640 60.844,287.984 60.377 C 287.329 59.911,286.792 59.618,286.792 59.727 M201.490 60.820 C 200.136 61.687,199.697 62.270,200.894 61.612 C 201.805 61.111,203.233 60.007,202.979 59.999 C 202.870 59.996,202.200 60.366,201.490 60.820 M195.758 64.463 C 192.348 66.661,189.682 68.650,192.254 67.077 C 197.175 64.068,200.313 61.918,199.702 61.976 C 199.647 61.981,197.873 63.100,195.758 64.463 M189.573 68.367 C 188.219 69.235,187.781 69.817,188.977 69.159 C 189.889 68.658,191.316 67.554,191.063 67.547 C 190.953 67.543,190.283 67.913,189.573 68.367 M297.716 69.513 C 298.569 70.387,299.357 71.102,299.466 71.102 C 299.575 71.102,298.967 70.387,298.113 69.513 C 297.260 68.640,296.472 67.925,296.363 67.925 C 296.254 67.925,296.863 68.640,297.716 69.513 M184.012 71.942 C 182.658 72.810,182.220 73.392,183.416 72.734 C 184.327 72.233,185.755 71.129,185.501 71.122 C 185.392 71.118,184.722 71.488,184.012 71.942 M179.643 74.723 C 178.289 75.590,177.850 76.172,179.047 75.515 C 179.958 75.014,181.386 73.910,181.132 73.902 C 181.023 73.899,180.353 74.268,179.643 74.723 M302.855 75.602 C 303.467 76.404,304.048 77.061,304.146 77.061 C 304.422 77.061,302.702 74.737,302.193 74.423 C 301.946 74.269,302.243 74.800,302.855 75.602 M176.465 76.709 C 175.111 77.576,174.673 78.158,175.869 77.501 C 176.780 77.000,178.208 75.896,177.954 75.888 C 177.845 75.885,177.175 76.254,176.465 76.709 M305.859 79.841 C 306.749 81.152,307.567 82.224,307.676 82.224 C 307.785 82.224,307.146 81.152,306.256 79.841 C 305.366 78.530,304.548 77.458,304.439 77.458 C 304.330 77.458,304.969 78.530,305.859 79.841 M173.530 78.672 C 172.641 79.446,172.638 79.467,173.463 79.067 C 173.943 78.835,174.445 78.467,174.579 78.250 C 174.970 77.618,174.542 77.790,173.530 78.672 M167.726 82.270 C 166.372 83.137,165.934 83.719,167.130 83.062 C 168.041 82.561,169.469 81.457,169.215 81.449 C 169.106 81.446,168.436 81.815,167.726 82.270 M308.916 84.801 C 309.279 85.563,309.647 86.116,309.733 86.030 C 309.915 85.848,308.709 83.416,308.437 83.416 C 308.337 83.416,308.552 84.039,308.916 84.801 M157.795 88.626 C 156.442 89.493,156.003 90.075,157.200 89.417 C 158.111 88.917,159.539 87.812,159.285 87.805 C 159.176 87.802,158.505 88.171,157.795 88.626 M152.064 92.268 C 148.654 94.466,145.988 96.455,148.560 94.882 C 153.481 91.873,156.619 89.723,156.008 89.781 C 155.953 89.786,154.179 90.905,152.064 92.268 M312.243 91.849 C 312.197 92.319,313.491 95.380,313.663 95.208 C 313.749 95.122,313.471 94.266,313.045 93.305 C 312.619 92.345,312.258 91.690,312.243 91.849 M245.581 94.028 C 246.182 94.119,247.165 94.119,247.766 94.028 C 248.366 93.937,247.875 93.863,246.673 93.863 C 245.472 93.863,244.980 93.937,245.581 94.028 M240.177 94.789 C 237.319 95.666,238.118 95.790,241.115 94.934 C 242.534 94.529,243.337 94.197,242.900 94.197 C 242.463 94.197,241.237 94.463,240.177 94.789 M252.433 94.935 C 252.870 95.123,253.496 95.277,253.823 95.277 C 254.199 95.277,254.125 95.151,253.625 94.935 C 253.188 94.748,252.562 94.594,252.234 94.594 C 251.859 94.594,251.932 94.720,252.433 94.935 M145.879 96.173 C 144.525 97.040,144.087 97.622,145.283 96.965 C 146.194 96.464,147.622 95.360,147.368 95.352 C 147.259 95.349,146.589 95.718,145.879 96.173 M255.412 95.929 C 255.958 96.241,256.584 96.496,256.802 96.496 C 257.021 96.496,256.753 96.241,256.207 95.929 C 255.660 95.616,255.035 95.361,254.816 95.361 C 254.598 95.361,254.866 95.616,255.412 95.929 M233.850 97.883 C 231.647 99.408,230.829 100.200,232.572 99.121 C 235.028 97.600,236.517 96.525,236.140 96.546 C 235.925 96.558,234.895 97.160,233.850 97.883 M260.068 98.540 C 260.554 99.046,261.051 99.359,261.173 99.237 C 261.295 99.115,260.898 98.701,260.290 98.318 L 259.186 97.620 260.068 98.540 M314.665 98.908 C 314.686 99.940,315.311 101.635,315.325 100.695 C 315.331 100.258,315.183 99.543,314.995 99.106 C 314.786 98.620,314.658 98.543,314.665 98.908 M229.692 100.542 C 228.338 101.409,227.900 101.992,229.096 101.334 C 230.008 100.833,231.435 99.729,231.182 99.721 C 231.072 99.718,230.402 100.088,229.692 100.542 M135.948 102.528 C 134.594 103.395,134.156 103.978,135.353 103.320 C 136.264 102.819,137.692 101.715,137.438 101.708 C 137.329 101.704,136.658 102.074,135.948 102.528 M264.547 103.178 C 265.067 103.888,265.554 104.469,265.630 104.469 C 265.932 104.469,264.947 102.979,264.295 102.450 C 263.866 102.101,263.962 102.379,264.547 103.178 M132.771 104.514 C 131.417 105.381,130.979 105.964,132.175 105.306 C 133.086 104.805,134.514 103.701,134.260 103.694 C 134.151 103.690,133.481 104.060,132.771 104.514 M219.762 106.898 C 218.408 107.765,217.970 108.347,219.166 107.690 C 220.077 107.189,221.505 106.085,221.251 106.077 C 221.142 106.074,220.472 106.443,219.762 106.898 M316.783 116.981 C 316.783 122.224,316.903 125.710,317.051 124.727 C 317.394 122.443,317.390 112.037,317.046 109.434 C 316.901 108.342,316.783 111.738,316.783 116.981 M216.827 108.861 C 215.938 109.634,215.935 109.655,216.760 109.256 C 217.240 109.024,217.742 108.656,217.876 108.439 C 218.267 107.807,217.839 107.979,216.827 108.861 M214.201 110.473 C 212.847 111.340,212.409 111.922,213.605 111.265 C 214.516 110.764,215.944 109.659,215.690 109.652 C 215.581 109.649,214.911 110.018,214.201 110.473 M122.840 110.870 C 121.486 111.737,121.048 112.319,122.244 111.662 C 123.156 111.161,124.583 110.057,124.330 110.049 C 124.220 110.046,123.550 110.415,122.840 110.870 M268.654 115.988 C 268.654 117.627,268.724 118.297,268.810 117.478 C 268.895 116.658,268.895 115.318,268.810 114.499 C 268.724 113.679,268.654 114.350,268.654 115.988 M114.201 116.619 L 113.009 117.643 114.300 116.788 C 115.010 116.318,115.591 115.857,115.591 115.762 C 115.591 115.465,115.423 115.569,114.201 116.619 M204.270 116.828 C 202.916 117.695,202.478 118.278,203.674 117.620 C 204.586 117.119,206.013 116.015,205.760 116.007 C 205.650 116.004,204.980 116.374,204.270 116.828 M200.193 119.418 C 197.827 120.985,196.474 122.155,198.411 120.959 C 201.664 118.950,202.994 117.974,202.477 117.974 C 202.420 117.974,201.392 118.624,200.193 119.418 M109.584 119.991 L 107.845 121.610 109.732 120.105 C 110.770 119.278,111.619 118.549,111.619 118.486 C 111.619 118.180,111.185 118.500,109.584 119.991 M268.169 119.648 C 268.122 120.348,269.254 121.176,270.182 121.121 C 270.470 121.103,270.224 120.913,269.637 120.698 C 269.050 120.483,268.489 120.006,268.392 119.637 C 268.229 119.018,268.212 119.019,268.169 119.648 M195.531 122.389 C 194.177 123.256,193.739 123.839,194.935 123.181 C 195.847 122.680,197.275 121.576,197.021 121.568 C 196.912 121.565,196.241 121.935,195.531 122.389 M105.047 124.032 C 101.157 128.137,99.941 129.494,100.155 129.494 C 100.274 129.494,101.933 127.795,103.842 125.720 C 105.751 123.644,107.247 121.946,107.168 121.946 C 107.089 121.946,106.134 122.885,105.047 124.032 M190.857 125.378 C 188.830 126.722,188.116 127.431,189.699 126.528 C 191.092 125.734,192.951 124.352,192.644 124.339 C 192.531 124.334,191.727 124.802,190.857 125.378 M280.437 124.660 C 280.765 124.862,281.480 125.148,282.026 125.294 C 282.716 125.478,282.837 125.447,282.423 125.191 C 282.095 124.989,281.380 124.703,280.834 124.557 C 280.144 124.373,280.023 124.404,280.437 124.660 M284.806 126.514 C 285.353 126.827,285.978 127.082,286.197 127.082 C 286.415 127.082,286.147 126.827,285.601 126.514 C 285.055 126.202,284.429 125.947,284.211 125.947 C 283.992 125.947,284.260 126.202,284.806 126.514 M185.601 128.745 C 184.247 129.612,183.809 130.194,185.005 129.537 C 185.916 129.036,187.344 127.932,187.090 127.924 C 186.981 127.921,186.311 128.290,185.601 128.745 M288.414 128.054 C 288.821 128.422,291.956 129.886,291.956 129.708 C 291.956 129.483,288.959 127.905,288.530 127.905 C 288.375 127.905,288.323 127.972,288.414 128.054 M98.684 131.349 C 98.072 132.151,97.775 132.682,98.023 132.529 C 98.531 132.214,100.251 129.891,99.975 129.891 C 99.877 129.891,99.296 130.547,98.684 131.349 M182.666 130.708 C 181.777 131.482,181.774 131.502,182.600 131.103 C 183.079 130.871,183.581 130.503,183.715 130.286 C 184.106 129.654,183.678 129.826,182.666 130.708 M292.973 130.474 C 293.397 130.795,293.923 131.057,294.141 131.057 C 294.359 131.057,294.191 130.795,293.767 130.474 C 293.343 130.153,292.817 129.891,292.599 129.891 C 292.380 129.891,292.549 130.153,292.973 130.474 M294.935 131.361 C 295.154 131.587,296.226 132.271,297.319 132.882 C 298.411 133.494,299.126 133.809,298.908 133.584 C 298.689 133.359,297.617 132.674,296.524 132.063 C 295.432 131.452,294.717 131.136,294.935 131.361 M314.634 134.694 C 314.365 135.590,314.219 136.397,314.308 136.486 C 314.397 136.575,314.690 135.915,314.959 135.019 C 315.228 134.122,315.374 133.315,315.285 133.226 C 315.195 133.137,314.903 133.797,314.634 134.694 M176.862 134.306 C 175.508 135.173,175.070 135.755,176.266 135.098 C 177.178 134.597,178.605 133.493,178.352 133.485 C 178.242 133.482,177.572 133.851,176.862 134.306 M95.242 136.346 C 94.923 136.837,94.445 137.686,94.181 138.232 C 93.506 139.626,94.731 138.139,95.572 136.544 C 96.266 135.228,96.050 135.098,95.242 136.346 M302.085 135.711 C 302.710 136.348,311.420 142.251,311.420 142.038 C 311.420 141.932,309.767 140.701,307.746 139.302 C 303.692 136.495,301.475 135.089,302.085 135.711 M313.045 139.857 C 312.776 140.754,312.630 141.561,312.719 141.650 C 312.809 141.739,313.101 141.079,313.370 140.182 C 313.639 139.286,313.785 138.479,313.696 138.390 C 313.607 138.300,313.314 138.961,313.045 139.857 M166.931 140.661 C 165.578 141.528,165.139 142.111,166.336 141.453 C 167.247 140.952,168.675 139.848,168.421 139.841 C 168.312 139.837,167.642 140.207,166.931 140.661 M92.425 141.627 C 91.492 143.584,91.623 143.917,92.598 142.068 C 93.041 141.228,93.334 140.470,93.248 140.385 C 93.162 140.299,92.792 140.858,92.425 141.627 M162.855 143.251 C 160.719 144.665,159.233 145.861,160.477 145.165 C 163.106 143.693,165.724 141.807,165.139 141.807 C 165.081 141.807,164.053 142.457,162.855 143.251 M90.631 145.598 C 89.965 147.059,90.092 147.370,90.812 146.042 C 91.148 145.422,91.348 144.841,91.257 144.750 C 91.167 144.659,90.885 145.041,90.631 145.598 M155.809 147.784 C 154.444 148.658,153.327 149.464,153.327 149.575 C 153.327 149.786,157.621 147.143,158.272 146.531 C 159.019 145.830,158.249 146.221,155.809 147.784 M151.440 150.592 C 150.086 151.459,149.648 152.041,150.844 151.384 C 151.755 150.883,153.183 149.779,152.929 149.771 C 152.820 149.768,152.150 150.137,151.440 150.592 M88.410 151.965 C 88.264 152.547,88.221 153.100,88.314 153.193 C 88.408 153.287,88.604 152.887,88.750 152.305 C 88.896 151.723,88.939 151.170,88.846 151.077 C 88.752 150.983,88.556 151.383,88.410 151.965 M148.262 152.578 C 146.908 153.445,146.470 154.027,147.666 153.370 C 148.578 152.869,150.005 151.765,149.752 151.757 C 149.643 151.754,148.972 152.123,148.262 152.578 M142.688 156.405 C 141.738 157.334,141.722 157.379,142.583 156.709 C 144.278 155.388,144.359 155.313,144.078 155.313 C 143.928 155.313,143.303 155.804,142.688 156.405 M237.222 157.196 C 238.687 157.272,241.190 157.273,242.783 157.197 C 244.376 157.121,243.178 157.059,240.119 157.058 C 237.061 157.058,235.757 157.120,237.222 157.196 M139.971 158.590 C 138.798 159.928,138.113 160.874,138.316 160.874 C 138.415 160.874,139.071 160.159,139.773 159.285 C 141.137 157.588,141.275 157.102,139.971 158.590 M224.826 158.491 C 223.491 158.918,224.933 158.918,226.614 158.491 C 227.684 158.218,227.704 158.187,226.812 158.180 C 226.266 158.176,225.372 158.316,224.826 158.491 M253.625 158.491 C 254.280 158.657,255.174 158.802,255.611 158.813 L 256.405 158.832 255.611 158.491 C 255.174 158.303,254.280 158.158,253.625 158.168 L 252.433 158.187 253.625 158.491 M86.694 161.072 C 86.698 161.946,86.780 162.257,86.875 161.763 C 86.970 161.269,86.966 160.554,86.867 160.174 C 86.767 159.794,86.690 160.199,86.694 161.072 M261.172 160.233 C 261.827 160.531,262.810 160.885,263.357 161.019 C 264.154 161.215,264.115 161.156,263.158 160.720 C 262.502 160.422,261.519 160.068,260.973 159.934 C 260.176 159.738,260.215 159.797,261.172 160.233 M217.478 160.689 C 216.484 161.168,216.451 161.223,217.279 161.021 C 218.405 160.745,219.670 160.101,219.067 160.109 C 218.848 160.113,218.133 160.374,217.478 160.689 M137.036 162.562 C 136.603 163.272,136.249 164.017,136.248 164.217 C 136.246 164.670,136.302 164.596,137.353 162.761 C 138.397 160.936,138.130 160.768,137.036 162.562 M212.711 162.441 C 211.837 162.855,211.301 163.194,211.519 163.196 C 212.061 163.199,215.196 161.732,214.697 161.708 C 214.479 161.698,213.585 162.027,212.711 162.441 M267.726 162.661 C 268.272 162.974,268.898 163.229,269.116 163.229 C 269.335 163.229,269.067 162.974,268.520 162.661 C 267.974 162.349,267.349 162.094,267.130 162.094 C 266.912 162.094,267.180 162.349,267.726 162.661 M86.297 164.250 C 86.301 165.124,86.383 165.435,86.478 164.941 C 86.573 164.447,86.569 163.732,86.470 163.352 C 86.370 162.972,86.292 163.376,86.297 164.250 M270.540 163.804 C 270.946 164.172,274.081 165.636,274.081 165.458 C 274.081 165.232,271.084 163.654,270.655 163.654 C 270.500 163.654,270.449 163.722,270.540 163.804 M203.774 167.082 C 202.135 168.081,200.616 169.092,200.397 169.329 C 200.179 169.565,200.447 169.490,200.993 169.163 C 206.051 166.128,206.951 165.561,206.951 165.413 C 206.951 165.146,206.918 165.164,203.774 167.082 M274.876 166.058 C 275.911 166.763,277.656 167.654,277.656 167.477 C 277.656 167.257,274.915 165.639,274.555 165.647 C 274.404 165.650,274.548 165.835,274.876 166.058 M134.906 168.868 C 134.597 170.410,134.649 174.267,134.995 175.495 C 135.137 176.000,135.253 174.436,135.253 172.019 C 135.253 167.129,135.253 167.130,134.906 168.868 M279.047 168.295 C 279.265 168.509,280.785 169.631,282.423 170.789 C 284.062 171.947,285.936 173.362,286.588 173.935 C 287.628 174.848,287.677 174.861,286.985 174.038 C 286.551 173.523,284.767 172.077,283.019 170.827 C 279.790 168.516,278.301 167.567,279.047 168.295 M85.892 171.202 C 85.892 171.966,85.973 172.279,86.073 171.897 C 86.173 171.514,86.173 170.889,86.073 170.506 C 85.973 170.124,85.892 170.437,85.892 171.202 M195.929 172.042 C 194.575 172.909,194.136 173.491,195.333 172.834 C 196.244 172.333,197.672 171.229,197.418 171.221 C 197.309 171.218,196.639 171.587,195.929 172.042 M86.310 176.167 C 86.313 177.259,86.390 177.659,86.482 177.055 C 86.573 176.451,86.571 175.558,86.476 175.069 C 86.382 174.580,86.307 175.074,86.310 176.167 M291.162 178.153 C 292.569 179.573,293.810 180.735,293.919 180.735 C 294.029 180.735,292.967 179.573,291.559 178.153 C 290.152 176.733,288.911 175.571,288.802 175.571 C 288.692 175.571,289.754 176.733,291.162 178.153 M185.998 178.397 C 184.644 179.264,184.206 179.847,185.402 179.189 C 186.314 178.688,187.741 177.584,187.488 177.576 C 187.378 177.573,186.708 177.943,185.998 178.397 M86.688 179.146 C 86.688 179.692,86.824 180.675,86.991 181.331 C 87.262 182.394,87.294 182.415,87.294 181.529 C 87.294 180.983,87.158 180.000,86.991 179.345 C 86.721 178.282,86.688 178.260,86.688 179.146 M182.820 180.383 C 181.466 181.250,181.028 181.833,182.224 181.175 C 183.136 180.674,184.564 179.570,184.310 179.563 C 184.201 179.559,183.530 179.929,182.820 180.383 M179.838 182.290 C 178.206 183.336,177.979 183.705,179.419 182.973 C 180.115 182.619,180.796 182.149,180.932 181.929 C 181.250 181.414,181.155 181.445,179.838 182.290 M295.530 182.920 C 296.294 183.794,297.076 184.687,297.267 184.906 C 297.458 185.124,297.429 184.945,297.203 184.508 C 296.977 184.071,296.195 183.178,295.466 182.523 L 294.141 181.332 295.530 182.920 M138.621 183.901 C 139.083 184.549,139.664 185.206,139.912 185.359 C 140.160 185.512,139.862 184.981,139.250 184.179 C 137.923 182.438,137.422 182.217,138.621 183.901 M174.081 185.944 C 172.728 186.811,172.289 187.394,173.486 186.736 C 174.397 186.235,175.825 185.131,175.571 185.124 C 175.462 185.120,174.791 185.490,174.081 185.944 M88.431 187.488 C 88.570 188.252,88.839 189.235,89.031 189.672 C 89.269 190.218,89.299 190.031,89.126 189.076 C 88.988 188.312,88.718 187.329,88.526 186.892 C 88.288 186.346,88.258 186.533,88.431 187.488 M353.724 189.599 L 357.299 190.864 357.509 203.575 L 357.719 216.286 357.707 203.391 L 357.696 190.496 354.717 189.417 C 353.078 188.823,351.380 188.337,350.943 188.336 C 350.506 188.335,351.758 188.903,353.724 189.599 M90.197 193.247 C 90.197 193.466,90.452 194.091,90.765 194.638 C 91.077 195.184,91.332 195.452,91.332 195.233 C 91.332 195.015,91.077 194.389,90.765 193.843 C 90.452 193.297,90.197 193.029,90.197 193.247 M240.232 204.861 C 241.386 204.942,243.174 204.941,244.204 204.859 C 245.234 204.778,244.290 204.712,242.105 204.713 C 239.921 204.714,239.077 204.781,240.232 204.861 M112.187 223.829 C 113.265 224.848,114.963 226.212,115.961 226.860 C 116.959 227.509,117.255 227.629,116.619 227.128 C 115.983 226.627,114.285 225.263,112.845 224.097 C 110.278 222.017,110.266 222.012,112.187 223.829 M312.328 223.833 C 312.331 224.926,312.408 225.325,312.500 224.721 C 312.591 224.118,312.588 223.224,312.494 222.735 C 312.400 222.247,312.325 222.741,312.328 223.833 M203.873 224.425 C 203.163 224.858,202.582 225.298,202.582 225.403 C 202.582 225.508,203.208 225.225,203.972 224.774 C 204.737 224.322,205.362 223.882,205.362 223.794 C 205.362 223.540,205.237 223.593,203.873 224.425 M200.695 226.461 C 199.341 227.328,198.903 227.910,200.099 227.253 C 201.011 226.752,202.438 225.648,202.185 225.640 C 202.075 225.637,201.405 226.006,200.695 226.461 M312.355 230.586 C 312.354 232.552,312.421 233.407,312.505 232.485 C 312.588 231.563,312.589 229.954,312.507 228.910 C 312.425 227.865,312.357 228.620,312.355 230.586 M196.618 229.050 C 194.252 230.617,192.899 231.788,194.836 230.592 C 198.089 228.583,199.419 227.607,198.902 227.607 C 198.845 227.607,197.817 228.256,196.618 229.050 M120.357 229.771 C 120.357 229.880,120.894 230.247,121.549 230.586 C 122.205 230.925,122.741 231.113,122.741 231.004 C 122.741 230.894,122.205 230.528,121.549 230.189 C 120.894 229.850,120.357 229.662,120.357 229.771 M123.932 231.775 C 123.932 232.043,127.953 234.046,128.132 233.868 C 128.213 233.786,127.302 233.240,126.106 232.654 C 124.911 232.067,123.932 231.672,123.932 231.775 M191.360 232.203 C 189.875 233.009,189.966 233.345,191.460 232.572 C 192.115 232.233,192.651 231.871,192.651 231.767 C 192.651 231.512,192.609 231.526,191.360 232.203 M129.494 234.558 C 130.040 234.870,130.665 235.126,130.884 235.126 C 131.102 235.126,130.834 234.870,130.288 234.558 C 129.742 234.246,129.116 233.990,128.898 233.990 C 128.679 233.990,128.947 234.246,129.494 234.558 M186.296 234.558 C 185.750 234.870,185.482 235.126,185.700 235.126 C 185.919 235.126,186.544 234.870,187.090 234.558 C 187.637 234.246,187.905 233.990,187.686 233.990 C 187.468 233.990,186.842 234.246,186.296 234.558 M134.657 236.544 C 136.471 237.243,137.185 237.232,135.650 236.530 C 134.995 236.230,134.191 235.990,133.863 235.996 C 133.535 236.003,133.893 236.250,134.657 236.544 M310.846 241.730 C 310.697 242.527,310.654 243.259,310.751 243.356 C 310.848 243.453,311.050 242.880,311.199 242.083 C 311.349 241.286,311.392 240.554,311.295 240.457 C 311.198 240.360,310.996 240.933,310.846 241.730 M308.883 248.907 C 308.531 249.941,308.255 250.979,308.271 251.213 C 308.287 251.447,308.644 250.670,309.065 249.486 C 309.485 248.302,309.760 247.264,309.676 247.180 C 309.592 247.096,309.235 247.873,308.883 248.907 M243.093 249.308 C 240.727 250.875,239.374 252.046,241.311 250.850 C 244.564 248.841,245.893 247.865,245.377 247.865 C 245.319 247.865,244.292 248.515,243.093 249.308 M238.431 252.280 C 237.077 253.147,236.639 253.729,237.835 253.072 C 238.747 252.571,240.174 251.467,239.921 251.459 C 239.811 251.456,239.141 251.825,238.431 252.280 M235.253 254.266 C 233.899 255.133,233.461 255.716,234.657 255.058 C 235.569 254.557,236.997 253.453,236.743 253.445 C 236.634 253.442,235.963 253.811,235.253 254.266 M85.799 254.906 C 85.799 255.112,86.023 255.282,86.296 255.284 C 86.569 255.286,87.999 256.134,89.474 257.168 C 90.948 258.202,92.155 258.959,92.155 258.850 C 92.155 258.613,87.051 255.013,86.314 254.730 C 86.031 254.621,85.799 254.701,85.799 254.906 M229.692 257.841 C 228.338 258.708,227.900 259.290,229.096 258.633 C 230.008 258.132,231.435 257.028,231.182 257.020 C 231.072 257.017,230.402 257.386,229.692 257.841 M84.644 259.023 C 84.375 259.920,84.229 260.726,84.318 260.816 C 84.407 260.905,84.700 260.245,84.969 259.348 C 85.237 258.452,85.384 257.645,85.295 257.556 C 85.205 257.466,84.912 258.127,84.644 259.023 M96.300 261.726 C 96.448 261.965,96.938 262.358,97.389 262.600 C 97.977 262.914,98.133 262.915,97.940 262.604 C 97.793 262.365,97.303 261.972,96.851 261.730 C 96.264 261.416,96.107 261.414,96.300 261.726 M99.901 263.960 C 100.338 264.315,101.053 264.782,101.490 264.996 L 102.284 265.386 101.490 264.740 C 101.053 264.384,100.338 263.917,99.901 263.703 L 99.106 263.313 99.901 263.960 M219.762 264.197 C 218.408 265.064,217.970 265.646,219.166 264.988 C 220.077 264.488,221.505 263.383,221.251 263.376 C 221.142 263.373,220.472 263.742,219.762 264.197 M82.660 267.321 C 82.421 268.439,82.241 269.747,82.262 270.228 C 82.282 270.709,82.546 269.861,82.847 268.344 C 83.148 266.827,83.327 265.519,83.245 265.437 C 83.163 265.355,82.900 266.203,82.660 267.321 M102.483 265.521 C 102.483 265.630,103.019 265.997,103.674 266.336 C 104.330 266.675,104.866 266.863,104.866 266.753 C 104.866 266.644,104.330 266.277,103.674 265.938 C 103.019 265.600,102.483 265.412,102.483 265.521 M214.201 267.772 C 212.847 268.639,212.409 269.221,213.605 268.563 C 214.516 268.062,215.944 266.958,215.690 266.951 C 215.581 266.948,214.911 267.317,214.201 267.772 M111.221 270.109 C 111.986 270.528,112.790 270.870,113.009 270.870 C 113.227 270.870,112.781 270.528,112.016 270.109 C 111.251 269.691,110.447 269.348,110.228 269.348 C 110.010 269.348,110.457 269.691,111.221 270.109 M205.754 273.142 C 203.619 274.556,202.133 275.752,203.376 275.056 C 206.005 273.584,208.624 271.698,208.038 271.698 C 207.981 271.698,206.953 272.348,205.754 273.142 M119.960 273.617 C 120.288 273.820,121.003 274.105,121.549 274.251 C 122.239 274.436,122.360 274.404,121.946 274.148 C 121.619 273.946,120.904 273.661,120.357 273.515 C 119.667 273.330,119.546 273.361,119.960 273.617 M200.193 276.717 C 197.827 278.283,196.474 279.454,198.411 278.258 C 201.664 276.249,202.994 275.273,202.477 275.273 C 202.420 275.273,201.392 275.923,200.193 276.717 M352.181 279.301 C 356.572 283.797,357.941 285.646,360.315 290.281 C 361.178 291.967,361.768 292.900,361.626 292.354 C 360.494 288.023,352.430 277.345,348.967 275.593 C 348.525 275.369,349.971 277.038,352.181 279.301 M127.985 276.335 C 129.269 276.785,129.903 277.248,130.016 277.819 C 130.169 278.594,130.183 278.589,130.234 277.746 C 130.290 276.813,129.436 276.288,127.192 275.877 C 126.601 275.768,126.958 275.974,127.985 276.335 M81.573 280.040 C 81.573 282.115,81.640 282.964,81.722 281.927 C 81.804 280.889,81.804 279.191,81.722 278.153 C 81.640 277.115,81.573 277.964,81.573 280.040 M191.162 282.469 C 189.808 283.336,189.370 283.918,190.566 283.261 C 191.477 282.760,192.905 281.656,192.651 281.648 C 192.542 281.645,191.872 282.014,191.162 282.469 M278.550 284.455 C 277.196 285.322,276.758 285.904,277.954 285.247 C 278.866 284.746,280.293 283.642,280.040 283.634 C 279.930 283.631,279.260 284.000,278.550 284.455 M275.372 286.441 C 274.018 287.308,273.580 287.890,274.777 287.233 C 275.688 286.732,277.116 285.628,276.862 285.620 C 276.753 285.617,276.082 285.986,275.372 286.441 M81.927 287.786 C 81.932 288.659,82.013 288.970,82.108 288.476 C 82.203 287.982,82.200 287.267,82.100 286.887 C 82.001 286.507,81.923 286.912,81.927 287.786 M130.336 286.792 C 130.329 287.120,130.569 287.925,130.869 288.580 C 131.572 290.114,131.582 289.400,130.884 287.587 C 130.589 286.822,130.343 286.465,130.336 286.792 M272.437 288.404 C 271.549 289.178,271.545 289.198,272.371 288.799 C 272.851 288.567,273.353 288.199,273.487 287.982 C 273.877 287.350,273.449 287.522,272.437 288.404 M269.811 290.016 C 268.457 290.883,268.019 291.465,269.215 290.808 C 270.127 290.307,271.555 289.203,271.301 289.195 C 271.192 289.192,270.521 289.561,269.811 290.016 M82.494 291.758 C 82.620 292.850,82.790 293.818,82.871 293.909 C 83.150 294.222,82.939 291.757,82.602 290.765 C 82.375 290.095,82.339 290.418,82.494 291.758 M132.658 292.724 C 133.096 293.583,133.625 294.391,133.835 294.521 C 134.044 294.650,133.763 293.947,133.210 292.959 C 131.977 290.752,131.561 290.575,132.658 292.724 M265.442 292.796 C 264.088 293.664,263.650 294.246,264.846 293.588 C 265.757 293.087,267.185 291.983,266.931 291.976 C 266.822 291.972,266.152 292.342,265.442 292.796 M361.899 293.638 C 361.882 293.799,362.295 295.409,362.819 297.216 C 364.601 303.366,365.130 314.020,364.038 321.748 C 363.887 322.811,363.926 322.945,364.204 322.319 C 365.646 319.062,365.483 306.616,363.905 299.484 C 363.249 296.520,361.988 292.843,361.899 293.638 M136.230 297.219 C 137.876 298.973,138.232 299.289,138.232 298.990 C 138.232 298.927,137.383 298.078,136.346 297.104 L 134.459 295.333 136.230 297.219 M259.881 296.321 C 258.550 297.133,258.047 297.844,259.285 297.163 C 260.207 296.656,261.621 295.559,261.370 295.545 C 261.261 295.539,260.591 295.888,259.881 296.321 M256.703 298.358 C 255.349 299.225,254.911 299.807,256.107 299.149 C 257.019 298.648,258.446 297.544,258.193 297.537 C 258.083 297.533,257.413 297.903,256.703 298.358 M84.211 299.233 C 84.211 299.718,85.487 303.523,85.609 303.401 C 85.795 303.216,84.618 299.106,84.379 299.106 C 84.286 299.106,84.211 299.163,84.211 299.233 M138.830 299.506 C 139.096 299.936,141.410 301.225,141.410 300.943 C 141.410 300.850,140.774 300.398,139.996 299.939 C 139.218 299.480,138.693 299.285,138.830 299.506 M252.626 300.947 C 250.260 302.514,248.907 303.685,250.844 302.488 C 254.097 300.480,255.427 299.503,254.910 299.503 C 254.853 299.503,253.825 300.153,252.626 300.947 M247.964 303.919 C 246.610 304.786,246.172 305.368,247.368 304.710 C 248.280 304.209,249.708 303.105,249.454 303.098 C 249.345 303.095,248.674 303.464,247.964 303.919 M243.595 306.699 C 242.241 307.566,241.803 308.148,242.999 307.491 C 243.910 306.990,245.338 305.886,245.084 305.878 C 244.975 305.875,244.305 306.244,243.595 306.699 M89.102 311.619 C 89.871 313.148,90.786 314.757,91.135 315.194 C 91.484 315.631,91.024 314.558,90.113 312.810 C 89.202 311.063,88.287 309.454,88.080 309.235 C 87.872 309.017,88.332 310.089,89.102 311.619 M238.034 310.274 C 236.680 311.141,236.242 311.723,237.438 311.066 C 238.349 310.565,239.777 309.461,239.523 309.453 C 239.414 309.450,238.744 309.819,238.034 310.274 M322.462 311.619 C 322.611 312.493,322.713 314.727,322.690 316.584 C 322.664 318.620,322.773 319.645,322.964 319.166 C 323.466 317.907,323.328 313.360,322.734 311.619 L 322.192 310.030 322.462 311.619 M230.779 314.850 C 228.644 316.264,227.158 317.460,228.401 316.764 C 231.030 315.292,233.649 313.406,233.063 313.406 C 233.006 313.406,231.978 314.056,230.779 314.850 M225.812 318.030 C 223.785 319.374,223.071 320.083,224.654 319.180 C 226.047 318.385,227.906 317.003,227.600 316.990 C 227.487 316.985,226.682 317.453,225.812 318.030 M321.515 321.843 C 318.884 327.743,312.010 331.215,299.702 332.861 L 296.922 333.233 300.497 333.061 C 310.055 332.599,319.321 327.922,321.806 322.304 C 322.247 321.307,322.532 320.414,322.439 320.320 C 322.346 320.227,321.930 320.912,321.515 321.843 M96.067 322.458 C 96.558 323.147,97.164 323.837,97.415 323.992 C 97.667 324.147,97.471 323.711,96.981 323.023 C 96.491 322.335,95.885 321.645,95.633 321.489 C 95.382 321.334,95.577 321.770,96.067 322.458 M216.187 324.177 C 214.833 325.044,214.395 325.626,215.591 324.969 C 216.502 324.468,217.930 323.364,217.676 323.356 C 217.567 323.353,216.897 323.722,216.187 324.177 M362.590 327.239 C 357.468 346.002,344.768 356.663,321.748 361.524 C 317.909 362.335,317.084 362.596,318.843 362.443 C 330.103 361.467,345.271 354.412,352.838 346.631 C 357.698 341.633,362.595 331.838,363.705 324.895 C 364.125 322.270,363.706 323.150,362.590 327.239 M97.716 324.653 C 97.716 324.721,98.297 325.302,99.007 325.944 L 100.298 327.110 99.131 325.819 C 98.044 324.616,97.716 324.346,97.716 324.653 M211.221 327.334 C 209.528 328.431,208.143 329.411,208.143 329.512 C 208.143 329.720,212.455 327.066,213.805 326.027 C 215.471 324.745,214.310 325.332,211.221 327.334 M101.868 329.228 C 103.498 330.947,103.679 331.084,103.667 330.586 C 103.663 330.422,102.903 329.677,101.979 328.931 L 100.298 327.573 101.868 329.228 M104.983 331.940 C 105.324 332.495,109.235 335.804,109.235 335.537 C 109.235 335.434,108.215 334.479,106.967 333.415 C 105.720 332.350,104.827 331.687,104.983 331.940 M202.179 333.122 C 199.814 334.689,198.460 335.859,200.397 334.663 C 203.650 332.655,204.980 331.678,204.463 331.678 C 204.406 331.678,203.378 332.328,202.179 333.122 M292.651 333.547 C 293.143 333.642,293.947 333.642,294.439 333.547 C 294.930 333.453,294.528 333.375,293.545 333.375 C 292.562 333.375,292.160 333.453,292.651 333.547 M197.517 336.093 C 196.163 336.960,195.725 337.543,196.922 336.885 C 197.833 336.384,199.261 335.280,199.007 335.273 C 198.898 335.269,198.227 335.639,197.517 336.093 M111.221 336.967 C 111.221 337.065,111.878 337.646,112.680 338.257 C 113.482 338.869,114.013 339.167,113.859 338.919 C 113.545 338.410,111.221 336.691,111.221 336.967 M194.340 338.079 C 192.986 338.947,192.548 339.529,193.744 338.871 C 194.655 338.370,196.083 337.266,195.829 337.259 C 195.720 337.255,195.050 337.625,194.340 338.079 M117.180 340.969 C 117.180 341.242,119.982 342.911,120.153 342.740 C 120.236 342.657,119.601 342.184,118.742 341.690 C 117.883 341.195,117.180 340.871,117.180 340.969 M185.708 343.211 C 183.746 344.270,182.079 345.371,182.003 345.657 C 181.908 346.017,181.967 346.039,182.194 345.731 C 182.375 345.486,183.774 344.651,185.303 343.877 C 187.734 342.645,190.055 341.190,189.474 341.261 C 189.364 341.275,187.670 342.152,185.708 343.211 M127.507 346.143 C 128.054 346.435,128.947 346.785,129.494 346.921 C 130.040 347.057,129.772 346.824,128.898 346.404 C 127.100 345.539,125.986 345.330,127.507 346.143 M134.062 348.361 C 134.499 348.549,135.124 348.703,135.452 348.703 C 135.827 348.703,135.754 348.577,135.253 348.361 C 134.816 348.174,134.191 348.020,133.863 348.020 C 133.487 348.020,133.561 348.146,134.062 348.361 M251.951 356.855 C 253.691 358.210,268.140 362.131,272.627 362.466 C 275.385 362.672,274.351 362.350,269.513 361.495 C 265.507 360.788,258.416 358.894,254.564 357.503 C 252.737 356.843,251.561 356.551,251.951 356.855 M275.306 362.826 C 276.612 364.121,302.261 364.718,310.809 363.651 C 313.422 363.325,315.731 363.059,315.940 363.059 C 316.148 363.059,316.227 362.967,316.115 362.854 C 316.002 362.742,313.084 362.920,309.629 363.251 C 301.773 364.004,290.515 364.005,282.224 363.254 C 274.992 362.599,275.084 362.605,275.306 362.826 " stroke="none" fill="#579bd2" fill-rule="evenodd"></path></g></svg>